<svg width="129" height="30" viewBox="0 0 129 30" fill="none" xmlns="http://www.w3.org/2000/svg">
<path d="M18.1449 5.58C18.1449 5.69667 18.0983 5.80167 18.0049 5.895C17.9349 5.965 17.8416 6 17.7249 6H5.78993C5.67327 6 5.61493 6.05833 5.61493 6.175V12.72C5.61493 12.8367 5.67327 12.895 5.78993 12.895H13.8049C13.9216 12.895 14.0149 12.9417 14.0849 13.035C14.1783 13.105 14.2249 13.1983 14.2249 13.315V15.975C14.2249 16.0917 14.1783 16.1967 14.0849 16.29C14.0149 16.36 13.9216 16.395 13.8049 16.395H5.78993C5.67327 16.395 5.61493 16.4533 5.61493 16.57V23.325C5.61493 23.4417 5.67327 23.5 5.78993 23.5H17.7249C17.8416 23.5 17.9349 23.5467 18.0049 23.64C18.0983 23.71 18.1449 23.8033 18.1449 23.92V26.58C18.1449 26.6967 18.0983 26.8017 18.0049 26.895C17.9349 26.965 17.8416 27 17.7249 27H1.97493C1.85826 27 1.75326 26.965 1.65993 26.895C1.58993 26.8017 1.55493 26.6967 1.55493 26.58V2.92C1.55493 2.80333 1.58993 2.71 1.65993 2.64C1.75326 2.54667 1.85826 2.5 1.97493 2.5H17.7249C17.8416 2.5 17.9349 2.54667 18.0049 2.64C18.0983 2.71 18.1449 2.80333 18.1449 2.92V5.58Z" fill="#2E2B26"/>
<path d="M29.9678 8.835C31.8578 8.835 33.3628 9.395 34.4828 10.515C35.6262 11.635 36.1978 13.1633 36.1978 15.1V26.58C36.1978 26.6967 36.1512 26.8017 36.0578 26.895C35.9878 26.965 35.8945 27 35.7778 27H32.5578C32.4412 27 32.3362 26.965 32.2428 26.895C32.1728 26.8017 32.1378 26.6967 32.1378 26.58V15.94C32.1378 14.8667 31.8345 14.0033 31.2278 13.35C30.6212 12.6733 29.8162 12.335 28.8128 12.335C27.8095 12.335 26.9928 12.6617 26.3628 13.315C25.7562 13.9683 25.4528 14.8317 25.4528 15.905V26.58C25.4528 26.6967 25.4062 26.8017 25.3128 26.895C25.2428 26.965 25.1495 27 25.0328 27H21.8128C21.6962 27 21.5912 26.965 21.4978 26.895C21.4278 26.8017 21.3928 26.6967 21.3928 26.58V9.535C21.3928 9.41833 21.4278 9.325 21.4978 9.255C21.5912 9.16167 21.6962 9.115 21.8128 9.115H25.0328C25.1495 9.115 25.2428 9.16167 25.3128 9.255C25.4062 9.325 25.4528 9.41833 25.4528 9.535V10.655C25.4528 10.725 25.4762 10.7717 25.5228 10.795C25.5695 10.8183 25.6045 10.795 25.6278 10.725C26.5845 9.465 28.0312 8.835 29.9678 8.835Z" fill="#2E2B26"/>
<path d="M48.4817 8.835C50.3717 8.835 51.8767 9.395 52.9967 10.515C54.1401 11.635 54.7117 13.1633 54.7117 15.1V26.58C54.7117 26.6967 54.6651 26.8017 54.5717 26.895C54.5017 26.965 54.4084 27 54.2917 27H51.0717C50.9551 27 50.8501 26.965 50.7567 26.895C50.6867 26.8017 50.6517 26.6967 50.6517 26.58V15.94C50.6517 14.8667 50.3484 14.0033 49.7417 13.35C49.1351 12.6733 48.3301 12.335 47.3267 12.335C46.3234 12.335 45.5067 12.6617 44.8767 13.315C44.2701 13.9683 43.9667 14.8317 43.9667 15.905V26.58C43.9667 26.6967 43.9201 26.8017 43.8267 26.895C43.7567 26.965 43.6634 27 43.5467 27H40.3267C40.2101 27 40.1051 26.965 40.0117 26.895C39.9417 26.8017 39.9067 26.6967 39.9067 26.58V2.92C39.9067 2.80333 39.9417 2.71 40.0117 2.64C40.1051 2.54667 40.2101 2.5 40.3267 2.5H43.5467C43.6634 2.5 43.7567 2.54667 43.8267 2.64C43.9201 2.71 43.9667 2.80333 43.9667 2.92V10.655C43.9667 10.725 43.9901 10.7717 44.0367 10.795C44.0834 10.8183 44.1184 10.795 44.1417 10.725C45.0984 9.465 46.5451 8.835 48.4817 8.835Z" fill="#2E2B26"/>
<path d="M65.2798 8.835C66.7498 8.835 68.0448 9.09167 69.1648 9.605C70.2848 10.1183 71.1481 10.83 71.7548 11.74C72.3615 12.6267 72.6648 13.6417 72.6648 14.785V26.58C72.6648 26.6967 72.6181 26.8017 72.5248 26.895C72.4548 26.965 72.3615 27 72.2448 27H69.0248C68.9081 27 68.8031 26.965 68.7098 26.895C68.6398 26.8017 68.6048 26.6967 68.6048 26.58V25.46C68.6048 25.39 68.5815 25.355 68.5348 25.355C68.4881 25.3317 68.4415 25.3433 68.3948 25.39C67.2515 26.65 65.5948 27.28 63.4248 27.28C61.6748 27.28 60.2281 26.8367 59.0848 25.95C57.9648 25.0633 57.4048 23.745 57.4048 21.995C57.4048 20.175 58.0348 18.7633 59.2948 17.76C60.5781 16.7333 62.3748 16.22 64.6848 16.22H68.4298C68.5465 16.22 68.6048 16.1617 68.6048 16.045V15.205C68.6048 14.295 68.3365 13.595 67.7998 13.105C67.2631 12.5917 66.4581 12.335 65.3848 12.335C64.4981 12.335 63.7748 12.4983 63.2148 12.825C62.6781 13.1283 62.3398 13.56 62.1998 14.12C62.1298 14.4 61.9665 14.5167 61.7098 14.47L58.3148 14.05C58.1981 14.0267 58.0931 13.9917 57.9998 13.945C57.9298 13.875 57.9065 13.7933 57.9298 13.7C58.1165 12.2767 58.8748 11.11 60.2048 10.2C61.5581 9.29 63.2498 8.835 65.2798 8.835ZM64.4398 24.06C65.5831 24.06 66.5631 23.7567 67.3798 23.15C68.1965 22.5433 68.6048 21.7733 68.6048 20.84V19.195C68.6048 19.0783 68.5465 19.02 68.4298 19.02H65.4898C64.2531 19.02 63.2731 19.2533 62.5498 19.72C61.8498 20.1867 61.4998 20.8517 61.4998 21.715C61.4998 22.4617 61.7681 23.045 62.3048 23.465C62.8648 23.8617 63.5765 24.06 64.4398 24.06Z" fill="#2E2B26"/>
<path d="M84.826 8.835C86.716 8.835 88.2209 9.395 89.341 10.515C90.4843 11.635 91.0559 13.1633 91.0559 15.1V26.58C91.0559 26.6967 91.0093 26.8017 90.9159 26.895C90.8459 26.965 90.7526 27 90.6359 27H87.4159C87.2993 27 87.1943 26.965 87.1009 26.895C87.0309 26.8017 86.9959 26.6967 86.9959 26.58V15.94C86.9959 14.8667 86.6926 14.0033 86.0859 13.35C85.4793 12.6733 84.6743 12.335 83.671 12.335C82.6676 12.335 81.8509 12.6617 81.2209 13.315C80.6143 13.9683 80.311 14.8317 80.311 15.905V26.58C80.311 26.6967 80.2643 26.8017 80.171 26.895C80.101 26.965 80.0076 27 79.8909 27H76.6709C76.5543 27 76.4493 26.965 76.3559 26.895C76.2859 26.8017 76.2509 26.6967 76.2509 26.58V9.535C76.2509 9.41833 76.2859 9.325 76.3559 9.255C76.4493 9.16167 76.5543 9.115 76.6709 9.115H79.8909C80.0076 9.115 80.101 9.16167 80.171 9.255C80.2643 9.325 80.311 9.41833 80.311 9.535V10.655C80.311 10.725 80.3343 10.7717 80.381 10.795C80.4276 10.8183 80.4626 10.795 80.4859 10.725C81.4426 9.465 82.8893 8.835 84.826 8.835Z" fill="#2E2B26"/>
<path d="M102.117 27.28C100.321 27.28 98.769 26.825 97.4623 25.915C96.1557 24.9817 95.2457 23.7333 94.7323 22.17C94.359 21.12 94.1723 19.72 94.1723 17.97C94.1723 16.29 94.359 14.9133 94.7323 13.84C95.2223 12.3 96.1207 11.0867 97.4273 10.2C98.7573 9.29 100.321 8.835 102.117 8.835C103.937 8.835 105.524 9.29 106.877 10.2C108.231 11.11 109.129 12.2533 109.572 13.63C109.689 14.0033 109.771 14.3767 109.817 14.75V14.82C109.817 15.0533 109.689 15.1933 109.432 15.24L106.282 15.695H106.212C106.002 15.695 105.862 15.5783 105.792 15.345C105.792 15.2283 105.781 15.135 105.757 15.065C105.711 14.8783 105.664 14.715 105.617 14.575C105.407 13.9217 104.987 13.385 104.357 12.965C103.727 12.545 102.981 12.335 102.117 12.335C101.231 12.335 100.472 12.5683 99.8423 13.035C99.2356 13.4783 98.8273 14.0967 98.6173 14.89C98.384 15.6367 98.2673 16.675 98.2673 18.005C98.2673 19.2883 98.3723 20.3267 98.5823 21.12C98.8157 21.9367 99.2356 22.59 99.8423 23.08C100.449 23.5467 101.207 23.78 102.117 23.78C103.004 23.78 103.762 23.5583 104.392 23.115C105.046 22.6483 105.466 22.03 105.652 21.26C105.676 21.2133 105.687 21.155 105.687 21.085C105.711 21.0617 105.722 21.0267 105.722 20.98C105.792 20.7 105.956 20.5833 106.212 20.63L109.362 21.12C109.479 21.1433 109.572 21.2017 109.642 21.295C109.736 21.365 109.771 21.47 109.747 21.61C109.677 21.9833 109.619 22.2517 109.572 22.415C109.129 23.9083 108.231 25.0983 106.877 25.985C105.524 26.8483 103.937 27.28 102.117 27.28Z" fill="#2E2B26"/>
<path d="M127.68 16.045C127.773 16.6283 127.82 17.2817 127.82 18.005L127.785 19.09C127.785 19.37 127.645 19.51 127.365 19.51H116.41C116.293 19.51 116.235 19.5683 116.235 19.685C116.305 20.455 116.41 20.98 116.55 21.26C117.11 22.94 118.475 23.7917 120.645 23.815C122.232 23.815 123.492 23.1617 124.425 21.855C124.518 21.715 124.635 21.645 124.775 21.645C124.868 21.645 124.95 21.68 125.02 21.75L127.19 23.535C127.4 23.6983 127.435 23.885 127.295 24.095C126.572 25.1217 125.604 25.915 124.39 26.475C123.2 27.035 121.87 27.315 120.4 27.315C118.58 27.315 117.028 26.9067 115.745 26.09C114.485 25.2733 113.563 24.13 112.98 22.66C112.443 21.4 112.175 19.65 112.175 17.41C112.175 16.0567 112.315 14.96 112.595 14.12C113.062 12.4867 113.937 11.2033 115.22 10.27C116.527 9.31333 118.09 8.835 119.91 8.835C124.507 8.835 127.097 11.2383 127.68 16.045ZM119.91 12.335C119.047 12.335 118.324 12.5567 117.74 13C117.18 13.42 116.783 14.015 116.55 14.785C116.41 15.1817 116.317 15.695 116.27 16.325C116.223 16.4417 116.27 16.5 116.41 16.5H123.515C123.632 16.5 123.69 16.4417 123.69 16.325C123.643 15.7417 123.573 15.2983 123.48 14.995C123.27 14.155 122.85 13.5017 122.22 13.035C121.613 12.5683 120.843 12.335 119.91 12.335Z" fill="#2E2B26"/>
</svg>
