<svg width="128" height="30" viewBox="0 0 128 30" fill="none" xmlns="http://www.w3.org/2000/svg">
<path d="M43.0998 27.6396L44.989 21.8353H54.174L56.0632 27.6396H61.8303L53.0554 2.18506H46.1201L37.3328 27.6396H43.0998ZM46.3562 17.6343L49.4883 8.00182H49.6872L52.8193 17.6343H46.3562Z" fill="#2E2B26"/>
<path d="M64.3046 27.6396H69.5993V16.1801C69.5993 14.0672 70.9417 12.6627 72.7066 12.6627C74.4466 12.6627 75.615 13.8559 75.615 15.7326V27.6396H80.7481V15.9812C80.7481 14.005 81.8792 12.6627 83.8057 12.6627C85.496 12.6627 86.7638 13.7191 86.7638 15.8445V27.6396H92.0461V14.8005C92.0461 10.6616 89.5851 8.30012 86.0304 8.30012C83.2339 8.30012 81.0589 9.72945 80.2758 11.9169H80.077C79.4679 9.70459 77.5166 8.30012 74.8941 8.30012C72.3213 8.30012 70.3699 9.6673 69.5745 11.9169H69.3508V8.54869H64.3046V27.6396Z" fill="#2E2B26"/>
<path d="M104.439 28.0125C109.162 28.0125 112.344 25.7131 113.089 22.1709L108.192 21.8477C107.658 23.3019 106.291 24.0601 104.526 24.0601C101.878 24.0601 100.2 22.3076 100.2 19.4613V19.4489H113.201V17.9947C113.201 11.5068 109.274 8.30012 104.227 8.30012C98.6095 8.30012 94.9678 12.2898 94.9678 18.1812C94.9678 24.2341 98.5598 28.0125 104.439 28.0125ZM100.2 16.1677C100.312 13.9926 101.965 12.2525 104.314 12.2525C106.614 12.2525 108.205 13.8932 108.217 16.1677H100.2Z" fill="#2E2B26"/>
<path d="M116.166 27.6396H121.461V16.8388C121.461 14.4897 123.176 12.874 125.513 12.874C126.246 12.874 127.253 12.9983 127.75 13.1598V8.46169C127.278 8.34983 126.619 8.27526 126.085 8.27526C123.947 8.27526 122.194 9.51816 121.498 11.8797H121.3V8.54869H116.166V27.6396Z" fill="#2E2B26"/>
<path d="M32.3276 1.59437C33.123 1.27617 33.9242 2.04031 33.6439 2.84995L25.0899 27.5622C24.8869 28.1488 24.204 28.4106 23.6609 28.1101L1.3246 15.7544C0.586689 15.3462 0.654277 14.2641 1.43725 13.9509L32.3276 1.59437Z" fill="#2E2B26"/>
</svg>
