<svg width="116" height="30" viewBox="0 0 116 30" fill="none" xmlns="http://www.w3.org/2000/svg">
<path d="M6.31997 29.24C4.50664 29.24 3.11997 28.8 2.15997 27.92C1.19997 27.0133 0.719971 25.7467 0.719971 24.12C0.719971 23.32 0.813304 22.56 0.999971 21.84L5.27997 1.8L11.2 1L9.27997 10C10.0266 9.54667 10.64 9.25333 11.12 9.12C11.6 8.96 12.08 8.88 12.56 8.88C15.7066 8.88 17.28 11.16 17.28 15.72C17.28 17.56 16.92 19.5333 16.2 21.64C15.5066 23.72 14.3333 25.5067 12.68 27C11.0533 28.4933 8.9333 29.24 6.31997 29.24ZM8.55997 25.36C9.38664 25.36 10.16 24.8533 10.88 23.84C11.6 22.8 12.1733 21.52 12.6 20C13.0266 18.4533 13.24 16.9733 13.24 15.56C13.24 14.4933 13.0533 13.5867 12.68 12.84C12.3066 12.0933 11.7866 11.72 11.12 11.72C10.72 11.72 10.2666 11.7867 9.75997 11.92C9.27997 12.0267 8.94664 12.2 8.75997 12.44L6.55997 22.6C6.47997 22.92 6.43997 23.2267 6.43997 23.52C6.43997 24.7467 7.14664 25.36 8.55997 25.36Z" fill="#2E2B26"/>
<path d="M22.1734 29.24C20.8934 29.24 19.8534 28.84 19.0534 28.04C18.2801 27.24 17.8934 26.04 17.8934 24.44C17.8934 23.7733 18.0001 22.9067 18.2134 21.84L20.9334 9H26.6934L23.8134 22.6C23.7334 23 23.6934 23.3733 23.6934 23.72C23.6934 24.8133 24.0934 25.36 24.8934 25.36C25.6401 25.36 26.2801 25.0533 26.8134 24.44C27.3467 23.8 27.7734 22.9333 28.0934 21.84L30.8134 9H36.5734L33.6934 22.6C33.5867 23 33.5334 23.4267 33.5334 23.88C33.5334 24.4133 33.6534 24.8 33.8934 25.04C34.1601 25.2533 34.5867 25.36 35.1734 25.36C35.9201 25.36 36.5601 25.04 37.0934 24.4C37.6534 23.76 38.0934 22.9067 38.4134 21.84H40.0934C39.1067 24.72 37.8801 26.68 36.4134 27.72C34.9734 28.7333 33.5201 29.24 32.0534 29.24C30.9067 29.24 29.9867 28.92 29.2934 28.28C28.6267 27.64 28.2267 26.6933 28.0934 25.44C27.1867 26.9067 26.2267 27.9067 25.2134 28.44C24.2267 28.9733 23.2134 29.24 22.1734 29.24Z" fill="#2E2B26"/>
<path d="M43.1687 29.24C41.3554 29.24 39.9687 28.8 39.0087 27.92C38.0487 27.0133 37.5687 25.7467 37.5687 24.12C37.5687 23.32 37.6621 22.56 37.8487 21.84L42.1287 1.8L48.0487 1L46.1287 10C46.8754 9.54667 47.4887 9.25333 47.9687 9.12C48.4487 8.96 48.9287 8.88 49.4087 8.88C52.5554 8.88 54.1287 11.16 54.1287 15.72C54.1287 17.56 53.7687 19.5333 53.0487 21.64C52.3554 23.72 51.1821 25.5067 49.5287 27C47.9021 28.4933 45.7821 29.24 43.1687 29.24ZM45.4087 25.36C46.2354 25.36 47.0087 24.8533 47.7287 23.84C48.4487 22.8 49.0221 21.52 49.4487 20C49.8754 18.4533 50.0887 16.9733 50.0887 15.56C50.0887 14.4933 49.9021 13.5867 49.5287 12.84C49.1554 12.0933 48.6354 11.72 47.9687 11.72C47.5687 11.72 47.1154 11.7867 46.6087 11.92C46.1287 12.0267 45.7954 12.2 45.6087 12.44L43.4087 22.6C43.3287 22.92 43.2887 23.2267 43.2887 23.52C43.2887 24.7467 43.9954 25.36 45.4087 25.36Z" fill="#2E2B26"/>
<path d="M60.3822 29.24C58.5688 29.24 57.1822 28.8 56.2222 27.92C55.2622 27.0133 54.7822 25.7467 54.7822 24.12C54.7822 23.32 54.8755 22.56 55.0622 21.84L59.3422 1.8L65.2622 1L63.3422 10C64.0888 9.54667 64.7022 9.25333 65.1822 9.12C65.6622 8.96 66.1422 8.88 66.6222 8.88C69.7688 8.88 71.3422 11.16 71.3422 15.72C71.3422 17.56 70.9822 19.5333 70.2622 21.64C69.5688 23.72 68.3955 25.5067 66.7422 27C65.1155 28.4933 62.9955 29.24 60.3822 29.24ZM62.6222 25.36C63.4488 25.36 64.2222 24.8533 64.9422 23.84C65.6622 22.8 66.2355 21.52 66.6622 20C67.0888 18.4533 67.3022 16.9733 67.3022 15.56C67.3022 14.4933 67.1155 13.5867 66.7422 12.84C66.3688 12.0933 65.8488 11.72 65.1822 11.72C64.7822 11.72 64.3288 11.7867 63.8222 11.92C63.3422 12.0267 63.0088 12.2 62.8222 12.44L60.6222 22.6C60.5422 22.92 60.5022 23.2267 60.5022 23.52C60.5022 24.7467 61.2088 25.36 62.6222 25.36Z" fill="#2E2B26"/>
<path d="M77.5956 29.24C75.7823 29.24 74.3956 28.8 73.4356 27.92C72.4756 27.0133 71.9956 25.7467 71.9956 24.12C71.9956 23.32 72.0889 22.56 72.2756 21.84L76.5556 1.8L82.4756 1L80.5556 10C81.3023 9.54667 81.9156 9.25333 82.3956 9.12C82.8756 8.96 83.3556 8.88 83.8356 8.88C86.9823 8.88 88.5556 11.16 88.5556 15.72C88.5556 17.56 88.1956 19.5333 87.4756 21.64C86.7823 23.72 85.6089 25.5067 83.9556 27C82.3289 28.4933 80.2089 29.24 77.5956 29.24ZM79.8356 25.36C80.6623 25.36 81.4356 24.8533 82.1556 23.84C82.8756 22.8 83.4489 21.52 83.8756 20C84.3023 18.4533 84.5156 16.9733 84.5156 15.56C84.5156 14.4933 84.3289 13.5867 83.9556 12.84C83.5823 12.0933 83.0623 11.72 82.3956 11.72C81.9956 11.72 81.5423 11.7867 81.0356 11.92C80.5556 12.0267 80.2223 12.2 80.0356 12.44L77.8356 22.6C77.7556 22.92 77.7156 23.2267 77.7156 23.52C77.7156 24.7467 78.4223 25.36 79.8356 25.36Z" fill="#2E2B26"/>
<path d="M93.449 29.24C92.169 29.24 91.129 28.84 90.329 28.04C89.5557 27.24 89.169 26.04 89.169 24.44C89.169 23.7733 89.2757 22.9067 89.489 21.84L93.769 1.8L99.689 1L95.089 22.6C94.9824 23 94.929 23.4267 94.929 23.88C94.929 24.4133 95.049 24.8 95.289 25.04C95.5557 25.2533 95.9824 25.36 96.569 25.36C97.3424 25.36 98.0624 25.04 98.729 24.4C99.3957 23.7333 99.8757 22.88 100.169 21.84H101.849C100.862 24.72 99.5957 26.68 98.049 27.72C96.5024 28.7333 94.969 29.24 93.449 29.24Z" fill="#2E2B26"/>
<path d="M105.233 29.24C103.286 29.24 101.766 28.7333 100.673 27.72C99.5798 26.68 99.0331 25.0667 99.0331 22.88C99.0331 21.04 99.3931 19.0133 100.113 16.8C100.833 14.5867 102.006 12.68 103.633 11.08C105.26 9.45334 107.326 8.64 109.833 8.64C112.766 8.64 114.233 9.92 114.233 12.48C114.233 13.9733 113.806 15.3467 112.953 16.6C112.1 17.8533 110.966 18.8667 109.553 19.64C108.14 20.3867 106.633 20.8133 105.033 20.92C104.98 21.5067 104.953 21.9067 104.953 22.12C104.953 24.3333 105.78 25.44 107.433 25.44C108.18 25.44 108.98 25.24 109.833 24.84C110.686 24.44 111.46 23.9333 112.153 23.32C111.433 27.2667 109.126 29.24 105.233 29.24ZM105.313 19C106.326 18.9733 107.273 18.64 108.153 18C109.06 17.36 109.78 16.5467 110.313 15.56C110.873 14.5467 111.153 13.4933 111.153 12.4C111.153 11.3067 110.82 10.76 110.153 10.76C109.22 10.76 108.286 11.6133 107.353 13.32C106.446 15 105.766 16.8933 105.313 19Z" fill="#2E2B26"/>
</svg>
