<svg width="443" height="872" viewBox="0 0 443 872" fill="none" xmlns="http://www.w3.org/2000/svg">
<path d="M5.5 131C4.11929 131 3 132.119 3 133.5V169.5C3 170.881 4.11929 172 5.5 172C6.88071 172 8 170.881 8 169.5V133.5C8 132.119 6.88071 131 5.5 131Z" fill="#F0F0F0"/>
<path d="M5.5 197C4.11929 197 3 198.119 3 199.5V264.5C3 265.881 4.11929 267 5.5 267C6.88071 267 8 265.881 8 264.5V199.5C8 198.119 6.88071 197 5.5 197Z" fill="#F0F0F0"/>
<path d="M3 284.5C3 283.119 4.11929 282 5.5 282C6.88071 282 8 283.119 8 284.5V349.5C8 350.881 6.88071 352 5.5 352C4.11929 352 3 350.881 3 349.5V284.5Z" fill="#F0F0F0"/>
<path d="M437.5 236C436.119 236 435 237.119 435 238.5V349.5C435 350.881 436.119 352 437.5 352C438.881 352 440 350.881 440 349.5V238.5C440 237.119 438.881 236 437.5 236Z" fill="#F0F0F0"/>
<path d="M8 58C8 27.6244 32.6243 3 63 3H380C410.376 3 435 27.6243 435 58V814C435 844.376 410.376 869 380 869H63C32.6243 869 8 844.376 8 814V58Z" fill="#F0F0F0"/>
<path d="M5.5 131C4.11929 131 3 132.119 3 133.5V169.5C3 170.881 4.11929 172 5.5 172C6.88071 172 8 170.881 8 169.5V133.5C8 132.119 6.88071 131 5.5 131Z" stroke="#848484" stroke-width="5"/>
<path d="M5.5 197C4.11929 197 3 198.119 3 199.5V264.5C3 265.881 4.11929 267 5.5 267C6.88071 267 8 265.881 8 264.5V199.5C8 198.119 6.88071 197 5.5 197Z" stroke="#848484" stroke-width="5"/>
<path d="M3 284.5C3 283.119 4.11929 282 5.5 282C6.88071 282 8 283.119 8 284.5V349.5C8 350.881 6.88071 352 5.5 352C4.11929 352 3 350.881 3 349.5V284.5Z" stroke="#848484" stroke-width="5"/>
<path d="M437.5 236C436.119 236 435 237.119 435 238.5V349.5C435 350.881 436.119 352 437.5 352C438.881 352 440 350.881 440 349.5V238.5C440 237.119 438.881 236 437.5 236Z" stroke="#848484" stroke-width="5"/>
<path d="M8 58C8 27.6244 32.6243 3 63 3H380C410.376 3 435 27.6243 435 58V814C435 844.376 410.376 869 380 869H63C32.6243 869 8 844.376 8 814V58Z" stroke="#848484" stroke-width="5"/>
<path d="M122.793 38.3125C122.793 35.8484 121.931 30 116.328 30H72.7931C51.3683 30 34 47.6288 34 69.375V802.625C34 824.371 51.3683 842 72.7931 842H370.207C391.632 842 409 824.371 409 802.625V69.375C409 47.6288 391.632 30 370.207 30H326.672C321.069 30 320.207 35.8484 320.207 38.3125V46.625C320.207 52.6049 316.421 58 308.138 58C300.013 58 275.483 58.1435 221.5 58.0034C167.517 58.1435 142.987 58 134.862 58C126.579 58 122.793 52.6049 122.793 46.625V38.3125Z" fill="white"/>
<path d="M266.5 44C268.985 44 271 41.9853 271 39.5C271 37.0147 268.985 35 266.5 35C264.015 35 262 37.0147 262 39.5C262 41.9853 264.015 44 266.5 44Z" fill="#848484"/>
<path d="M198.5 37C197.119 37 196 38.1193 196 39.5C196 40.8807 197.119 42 198.5 42H244.5C245.881 42 247 40.8807 247 39.5C247 38.1193 245.881 37 244.5 37H198.5Z" fill="#848484"/>
</svg>
