<svg width="20" height="20" viewBox="0 0 20 20" fill="none" xmlns="http://www.w3.org/2000/svg">
<path fill-rule="evenodd" clip-rule="evenodd" d="M8 1.75C4.54822 1.75 1.75 4.54822 1.75 8C1.75 11.4518 4.54822 14.25 8 14.25C11.4518 14.25 14.25 11.4518 14.25 8C14.25 4.54822 11.4518 1.75 8 1.75ZM0.25 8C0.25 3.71979 3.71979 0.25 8 0.25C12.2802 0.25 15.75 3.71979 15.75 8C15.75 9.87001 15.0877 11.5853 13.9848 12.9242L19.5303 18.4697L18.4697 19.5303L12.9242 13.9848C11.5853 15.0877 9.87001 15.75 8 15.75C3.71979 15.75 0.25 12.2802 0.25 8Z" fill="#2E2B26"/>
</svg>
