<svg width="116" height="30" viewBox="0 0 116 30" fill="none" xmlns="http://www.w3.org/2000/svg">
<path d="M6.31973 29.24C4.50639 29.24 3.11973 28.8 2.15973 27.92C1.19973 27.0133 0.719727 25.7467 0.719727 24.12C0.719727 23.32 0.81306 22.56 0.999727 21.84L5.27973 1.8L11.1997 1L9.27973 10C10.0264 9.54667 10.6397 9.25333 11.1197 9.12C11.5997 8.96 12.0797 8.88 12.5597 8.88C15.7064 8.88 17.2797 11.16 17.2797 15.72C17.2797 17.56 16.9197 19.5333 16.1997 21.64C15.5064 23.72 14.3331 25.5067 12.6797 27C11.0531 28.4933 8.93306 29.24 6.31973 29.24ZM8.55973 25.36C9.38639 25.36 10.1597 24.8533 10.8797 23.84C11.5997 22.8 12.1731 21.52 12.5997 20C13.0264 18.4533 13.2397 16.9733 13.2397 15.56C13.2397 14.4933 13.0531 13.5867 12.6797 12.84C12.3064 12.0933 11.7864 11.72 11.1197 11.72C10.7197 11.72 10.2664 11.7867 9.75973 11.92C9.27973 12.0267 8.94639 12.2 8.75973 12.44L6.55973 22.6C6.47973 22.92 6.43973 23.2267 6.43973 23.52C6.43973 24.7467 7.14639 25.36 8.55973 25.36Z" fill="#2E2B26"/>
<path d="M22.1732 29.24C20.8932 29.24 19.8532 28.84 19.0532 28.04C18.2798 27.24 17.8932 26.04 17.8932 24.44C17.8932 23.7733 17.9998 22.9067 18.2132 21.84L20.9332 9H26.6932L23.8132 22.6C23.7332 23 23.6932 23.3733 23.6932 23.72C23.6932 24.8133 24.0932 25.36 24.8932 25.36C25.6398 25.36 26.2798 25.0533 26.8132 24.44C27.3465 23.8 27.7732 22.9333 28.0932 21.84L30.8132 9H36.5732L33.6932 22.6C33.5865 23 33.5332 23.4267 33.5332 23.88C33.5332 24.4133 33.6532 24.8 33.8932 25.04C34.1598 25.2533 34.5865 25.36 35.1732 25.36C35.9198 25.36 36.5598 25.04 37.0932 24.4C37.6532 23.76 38.0932 22.9067 38.4132 21.84H40.0932C39.1065 24.72 37.8798 26.68 36.4132 27.72C34.9732 28.7333 33.5198 29.24 32.0532 29.24C30.9065 29.24 29.9865 28.92 29.2932 28.28C28.6265 27.64 28.2265 26.6933 28.0932 25.44C27.1865 26.9067 26.2265 27.9067 25.2132 28.44C24.2265 28.9733 23.2132 29.24 22.1732 29.24Z" fill="#2E2B26"/>
<path d="M43.1685 29.24C41.3551 29.24 39.9685 28.8 39.0085 27.92C38.0485 27.0133 37.5685 25.7467 37.5685 24.12C37.5685 23.32 37.6618 22.56 37.8485 21.84L42.1285 1.8L48.0485 1L46.1285 10C46.8751 9.54667 47.4885 9.25333 47.9685 9.12C48.4485 8.96 48.9285 8.88 49.4085 8.88C52.5551 8.88 54.1285 11.16 54.1285 15.72C54.1285 17.56 53.7685 19.5333 53.0485 21.64C52.3551 23.72 51.1818 25.5067 49.5285 27C47.9018 28.4933 45.7818 29.24 43.1685 29.24ZM45.4085 25.36C46.2351 25.36 47.0085 24.8533 47.7285 23.84C48.4485 22.8 49.0218 21.52 49.4485 20C49.8751 18.4533 50.0885 16.9733 50.0885 15.56C50.0885 14.4933 49.9018 13.5867 49.5285 12.84C49.1551 12.0933 48.6351 11.72 47.9685 11.72C47.5685 11.72 47.1151 11.7867 46.6085 11.92C46.1285 12.0267 45.7951 12.2 45.6085 12.44L43.4085 22.6C43.3285 22.92 43.2885 23.2267 43.2885 23.52C43.2885 24.7467 43.9951 25.36 45.4085 25.36Z" fill="#2E2B26"/>
<path d="M60.3819 29.24C58.5686 29.24 57.1819 28.8 56.2219 27.92C55.2619 27.0133 54.7819 25.7467 54.7819 24.12C54.7819 23.32 54.8752 22.56 55.0619 21.84L59.3419 1.8L65.2619 1L63.3419 10C64.0886 9.54667 64.7019 9.25333 65.1819 9.12C65.6619 8.96 66.1419 8.88 66.6219 8.88C69.7686 8.88 71.3419 11.16 71.3419 15.72C71.3419 17.56 70.9819 19.5333 70.2619 21.64C69.5686 23.72 68.3952 25.5067 66.7419 27C65.1152 28.4933 62.9952 29.24 60.3819 29.24ZM62.6219 25.36C63.4486 25.36 64.2219 24.8533 64.9419 23.84C65.6619 22.8 66.2352 21.52 66.6619 20C67.0886 18.4533 67.3019 16.9733 67.3019 15.56C67.3019 14.4933 67.1152 13.5867 66.7419 12.84C66.3686 12.0933 65.8486 11.72 65.1819 11.72C64.7819 11.72 64.3286 11.7867 63.8219 11.92C63.3419 12.0267 63.0086 12.2 62.8219 12.44L60.6219 22.6C60.5419 22.92 60.5019 23.2267 60.5019 23.52C60.5019 24.7467 61.2086 25.36 62.6219 25.36Z" fill="#2E2B26"/>
<path d="M77.5954 29.24C75.782 29.24 74.3954 28.8 73.4354 27.92C72.4754 27.0133 71.9954 25.7467 71.9954 24.12C71.9954 23.32 72.0887 22.56 72.2754 21.84L76.5554 1.8L82.4754 1L80.5554 10C81.302 9.54667 81.9154 9.25333 82.3954 9.12C82.8754 8.96 83.3554 8.88 83.8354 8.88C86.982 8.88 88.5554 11.16 88.5554 15.72C88.5554 17.56 88.1954 19.5333 87.4754 21.64C86.782 23.72 85.6087 25.5067 83.9554 27C82.3287 28.4933 80.2087 29.24 77.5954 29.24ZM79.8354 25.36C80.662 25.36 81.4354 24.8533 82.1554 23.84C82.8754 22.8 83.4487 21.52 83.8754 20C84.302 18.4533 84.5154 16.9733 84.5154 15.56C84.5154 14.4933 84.3287 13.5867 83.9554 12.84C83.582 12.0933 83.062 11.72 82.3954 11.72C81.9954 11.72 81.542 11.7867 81.0354 11.92C80.5554 12.0267 80.222 12.2 80.0354 12.44L77.8354 22.6C77.7554 22.92 77.7154 23.2267 77.7154 23.52C77.7154 24.7467 78.422 25.36 79.8354 25.36Z" fill="#2E2B26"/>
<path d="M93.4488 29.24C92.1688 29.24 91.1288 28.84 90.3288 28.04C89.5555 27.24 89.1688 26.04 89.1688 24.44C89.1688 23.7733 89.2755 22.9067 89.4888 21.84L93.7688 1.8L99.6888 1L95.0888 22.6C94.9821 23 94.9288 23.4267 94.9288 23.88C94.9288 24.4133 95.0488 24.8 95.2888 25.04C95.5555 25.2533 95.9821 25.36 96.5688 25.36C97.3421 25.36 98.0621 25.04 98.7288 24.4C99.3954 23.7333 99.8755 22.88 100.169 21.84H101.849C100.862 24.72 99.5955 26.68 98.0488 27.72C96.5021 28.7333 94.9688 29.24 93.4488 29.24Z" fill="#2E2B26"/>
<path d="M105.233 29.24C103.286 29.24 101.766 28.7333 100.673 27.72C99.5795 26.68 99.0329 25.0667 99.0329 22.88C99.0329 21.04 99.3929 19.0133 100.113 16.8C100.833 14.5867 102.006 12.68 103.633 11.08C105.26 9.45334 107.326 8.64 109.833 8.64C112.766 8.64 114.233 9.92 114.233 12.48C114.233 13.9733 113.806 15.3467 112.953 16.6C112.1 17.8533 110.966 18.8667 109.553 19.64C108.14 20.3867 106.633 20.8133 105.033 20.92C104.98 21.5067 104.953 21.9067 104.953 22.12C104.953 24.3333 105.78 25.44 107.433 25.44C108.18 25.44 108.98 25.24 109.833 24.84C110.686 24.44 111.46 23.9333 112.153 23.32C111.433 27.2667 109.126 29.24 105.233 29.24ZM105.313 19C106.326 18.9733 107.273 18.64 108.153 18C109.06 17.36 109.78 16.5467 110.313 15.56C110.873 14.5467 111.153 13.4933 111.153 12.4C111.153 11.3067 110.82 10.76 110.153 10.76C109.22 10.76 108.286 11.6133 107.353 13.32C106.446 15 105.766 16.8933 105.313 19Z" fill="#2E2B26"/>
</svg>
