<svg width="129" height="30" viewBox="0 0 129 30" fill="none" xmlns="http://www.w3.org/2000/svg">
<path d="M18.1447 5.58C18.1447 5.69667 18.098 5.80167 18.0047 5.895C17.9347 5.965 17.8414 6 17.7247 6H5.78969C5.67302 6 5.61469 6.05833 5.61469 6.175V12.72C5.61469 12.8367 5.67302 12.895 5.78969 12.895H13.8047C13.9214 12.895 14.0147 12.9417 14.0847 13.035C14.178 13.105 14.2247 13.1983 14.2247 13.315V15.975C14.2247 16.0917 14.178 16.1967 14.0847 16.29C14.0147 16.36 13.9214 16.395 13.8047 16.395H5.78969C5.67302 16.395 5.61469 16.4533 5.61469 16.57V23.325C5.61469 23.4417 5.67302 23.5 5.78969 23.5H17.7247C17.8414 23.5 17.9347 23.5467 18.0047 23.64C18.098 23.71 18.1447 23.8033 18.1447 23.92V26.58C18.1447 26.6967 18.098 26.8017 18.0047 26.895C17.9347 26.965 17.8414 27 17.7247 27H1.97469C1.85802 27 1.75302 26.965 1.65969 26.895C1.58969 26.8017 1.55469 26.6967 1.55469 26.58V2.92C1.55469 2.80333 1.58969 2.71 1.65969 2.64C1.75302 2.54667 1.85802 2.5 1.97469 2.5H17.7247C17.8414 2.5 17.9347 2.54667 18.0047 2.64C18.098 2.71 18.1447 2.80333 18.1447 2.92V5.58Z" fill="#2E2B26"/>
<path d="M29.9676 8.835C31.8576 8.835 33.3626 9.395 34.4826 10.515C35.6259 11.635 36.1976 13.1633 36.1976 15.1V26.58C36.1976 26.6967 36.1509 26.8017 36.0576 26.895C35.9876 26.965 35.8942 27 35.7776 27H32.5576C32.4409 27 32.3359 26.965 32.2426 26.895C32.1726 26.8017 32.1376 26.6967 32.1376 26.58V15.94C32.1376 14.8667 31.8342 14.0033 31.2276 13.35C30.6209 12.6733 29.8159 12.335 28.8126 12.335C27.8092 12.335 26.9926 12.6617 26.3626 13.315C25.7559 13.9683 25.4526 14.8317 25.4526 15.905V26.58C25.4526 26.6967 25.4059 26.8017 25.3126 26.895C25.2426 26.965 25.1492 27 25.0326 27H21.8126C21.6959 27 21.5909 26.965 21.4976 26.895C21.4276 26.8017 21.3926 26.6967 21.3926 26.58V9.535C21.3926 9.41833 21.4276 9.325 21.4976 9.255C21.5909 9.16167 21.6959 9.115 21.8126 9.115H25.0326C25.1492 9.115 25.2426 9.16167 25.3126 9.255C25.4059 9.325 25.4526 9.41833 25.4526 9.535V10.655C25.4526 10.725 25.4759 10.7717 25.5226 10.795C25.5692 10.8183 25.6042 10.795 25.6276 10.725C26.5842 9.465 28.0309 8.835 29.9676 8.835Z" fill="#2E2B26"/>
<path d="M48.4815 8.835C50.3715 8.835 51.8765 9.395 52.9965 10.515C54.1398 11.635 54.7115 13.1633 54.7115 15.1V26.58C54.7115 26.6967 54.6648 26.8017 54.5715 26.895C54.5015 26.965 54.4081 27 54.2915 27H51.0715C50.9548 27 50.8498 26.965 50.7565 26.895C50.6865 26.8017 50.6515 26.6967 50.6515 26.58V15.94C50.6515 14.8667 50.3482 14.0033 49.7415 13.35C49.1348 12.6733 48.3298 12.335 47.3265 12.335C46.3232 12.335 45.5065 12.6617 44.8765 13.315C44.2698 13.9683 43.9665 14.8317 43.9665 15.905V26.58C43.9665 26.6967 43.9198 26.8017 43.8265 26.895C43.7565 26.965 43.6632 27 43.5465 27H40.3265C40.2098 27 40.1048 26.965 40.0115 26.895C39.9415 26.8017 39.9065 26.6967 39.9065 26.58V2.92C39.9065 2.80333 39.9415 2.71 40.0115 2.64C40.1048 2.54667 40.2098 2.5 40.3265 2.5H43.5465C43.6632 2.5 43.7565 2.54667 43.8265 2.64C43.9198 2.71 43.9665 2.80333 43.9665 2.92V10.655C43.9665 10.725 43.9898 10.7717 44.0365 10.795C44.0831 10.8183 44.1181 10.795 44.1415 10.725C45.0981 9.465 46.5448 8.835 48.4815 8.835Z" fill="#2E2B26"/>
<path d="M65.2796 8.835C66.7496 8.835 68.0446 9.09167 69.1646 9.605C70.2846 10.1183 71.1479 10.83 71.7546 11.74C72.3612 12.6267 72.6646 13.6417 72.6646 14.785V26.58C72.6646 26.6967 72.6179 26.8017 72.5246 26.895C72.4546 26.965 72.3612 27 72.2446 27H69.0246C68.9079 27 68.8029 26.965 68.7096 26.895C68.6396 26.8017 68.6046 26.6967 68.6046 26.58V25.46C68.6046 25.39 68.5812 25.355 68.5346 25.355C68.4879 25.3317 68.4412 25.3433 68.3946 25.39C67.2512 26.65 65.5946 27.28 63.4246 27.28C61.6746 27.28 60.2279 26.8367 59.0846 25.95C57.9646 25.0633 57.4046 23.745 57.4046 21.995C57.4046 20.175 58.0346 18.7633 59.2946 17.76C60.5779 16.7333 62.3746 16.22 64.6846 16.22H68.4296C68.5462 16.22 68.6046 16.1617 68.6046 16.045V15.205C68.6046 14.295 68.3362 13.595 67.7996 13.105C67.2629 12.5917 66.4579 12.335 65.3846 12.335C64.4979 12.335 63.7746 12.4983 63.2146 12.825C62.6779 13.1283 62.3396 13.56 62.1996 14.12C62.1296 14.4 61.9662 14.5167 61.7096 14.47L58.3146 14.05C58.1979 14.0267 58.0929 13.9917 57.9996 13.945C57.9296 13.875 57.9062 13.7933 57.9296 13.7C58.1162 12.2767 58.8746 11.11 60.2046 10.2C61.5579 9.29 63.2496 8.835 65.2796 8.835ZM64.4396 24.06C65.5829 24.06 66.5629 23.7567 67.3796 23.15C68.1962 22.5433 68.6046 21.7733 68.6046 20.84V19.195C68.6046 19.0783 68.5462 19.02 68.4296 19.02H65.4896C64.2529 19.02 63.2729 19.2533 62.5496 19.72C61.8496 20.1867 61.4996 20.8517 61.4996 21.715C61.4996 22.4617 61.7679 23.045 62.3046 23.465C62.8646 23.8617 63.5762 24.06 64.4396 24.06Z" fill="#2E2B26"/>
<path d="M84.8257 8.835C86.7157 8.835 88.2207 9.395 89.3407 10.515C90.484 11.635 91.0557 13.1633 91.0557 15.1V26.58C91.0557 26.6967 91.009 26.8017 90.9157 26.895C90.8457 26.965 90.7524 27 90.6357 27H87.4157C87.299 27 87.194 26.965 87.1007 26.895C87.0307 26.8017 86.9957 26.6967 86.9957 26.58V15.94C86.9957 14.8667 86.6924 14.0033 86.0857 13.35C85.479 12.6733 84.674 12.335 83.6707 12.335C82.6674 12.335 81.8507 12.6617 81.2207 13.315C80.614 13.9683 80.3107 14.8317 80.3107 15.905V26.58C80.3107 26.6967 80.264 26.8017 80.1707 26.895C80.1007 26.965 80.0074 27 79.8907 27H76.6707C76.554 27 76.449 26.965 76.3557 26.895C76.2857 26.8017 76.2507 26.6967 76.2507 26.58V9.535C76.2507 9.41833 76.2857 9.325 76.3557 9.255C76.449 9.16167 76.554 9.115 76.6707 9.115H79.8907C80.0074 9.115 80.1007 9.16167 80.1707 9.255C80.264 9.325 80.3107 9.41833 80.3107 9.535V10.655C80.3107 10.725 80.334 10.7717 80.3807 10.795C80.4274 10.8183 80.4624 10.795 80.4857 10.725C81.4424 9.465 82.889 8.835 84.8257 8.835Z" fill="#2E2B26"/>
<path d="M102.117 27.28C100.32 27.28 98.7687 26.825 97.4621 25.915C96.1554 24.9817 95.2454 23.7333 94.7321 22.17C94.3587 21.12 94.1721 19.72 94.1721 17.97C94.1721 16.29 94.3587 14.9133 94.7321 13.84C95.2221 12.3 96.1204 11.0867 97.4271 10.2C98.7571 9.29 100.32 8.835 102.117 8.835C103.937 8.835 105.524 9.29 106.877 10.2C108.23 11.11 109.129 12.2533 109.572 13.63C109.689 14.0033 109.77 14.3767 109.817 14.75V14.82C109.817 15.0533 109.689 15.1933 109.432 15.24L106.282 15.695H106.212C106.002 15.695 105.862 15.5783 105.792 15.345C105.792 15.2283 105.78 15.135 105.757 15.065C105.71 14.8783 105.664 14.715 105.617 14.575C105.407 13.9217 104.987 13.385 104.357 12.965C103.727 12.545 102.98 12.335 102.117 12.335C101.23 12.335 100.472 12.5683 99.8421 13.035C99.2354 13.4783 98.8271 14.0967 98.6171 14.89C98.3837 15.6367 98.2671 16.675 98.2671 18.005C98.2671 19.2883 98.3721 20.3267 98.5821 21.12C98.8154 21.9367 99.2354 22.59 99.8421 23.08C100.449 23.5467 101.207 23.78 102.117 23.78C103.004 23.78 103.762 23.5583 104.392 23.115C105.045 22.6483 105.465 22.03 105.652 21.26C105.675 21.2133 105.687 21.155 105.687 21.085C105.71 21.0617 105.722 21.0267 105.722 20.98C105.792 20.7 105.955 20.5833 106.212 20.63L109.362 21.12C109.479 21.1433 109.572 21.2017 109.642 21.295C109.735 21.365 109.77 21.47 109.747 21.61C109.677 21.9833 109.619 22.2517 109.572 22.415C109.129 23.9083 108.23 25.0983 106.877 25.985C105.524 26.8483 103.937 27.28 102.117 27.28Z" fill="#2E2B26"/>
<path d="M127.68 16.045C127.773 16.6283 127.82 17.2817 127.82 18.005L127.785 19.09C127.785 19.37 127.645 19.51 127.365 19.51H116.41C116.293 19.51 116.235 19.5683 116.235 19.685C116.305 20.455 116.41 20.98 116.55 21.26C117.11 22.94 118.475 23.7917 120.645 23.815C122.232 23.815 123.492 23.1617 124.425 21.855C124.518 21.715 124.635 21.645 124.775 21.645C124.868 21.645 124.95 21.68 125.02 21.75L127.19 23.535C127.4 23.6983 127.435 23.885 127.295 24.095C126.572 25.1217 125.603 25.915 124.39 26.475C123.2 27.035 121.87 27.315 120.4 27.315C118.58 27.315 117.028 26.9067 115.745 26.09C114.485 25.2733 113.563 24.13 112.98 22.66C112.443 21.4 112.175 19.65 112.175 17.41C112.175 16.0567 112.315 14.96 112.595 14.12C113.062 12.4867 113.937 11.2033 115.22 10.27C116.527 9.31333 118.09 8.835 119.91 8.835C124.507 8.835 127.097 11.2383 127.68 16.045ZM119.91 12.335C119.047 12.335 118.323 12.5567 117.74 13C117.18 13.42 116.783 14.015 116.55 14.785C116.41 15.1817 116.317 15.695 116.27 16.325C116.223 16.4417 116.27 16.5 116.41 16.5H123.515C123.632 16.5 123.69 16.4417 123.69 16.325C123.643 15.7417 123.573 15.2983 123.48 14.995C123.27 14.155 122.85 13.5017 122.22 13.035C121.613 12.5683 120.843 12.335 119.91 12.335Z" fill="#2E2B26"/>
</svg>
