<svg width="148" height="30" viewBox="0 0 148 30" fill="none" xmlns="http://www.w3.org/2000/svg">
<path d="M4.84024 13.1322H4.76824V0.78418H0.448242V28.0002H4.76824V18.5682C4.76824 17.9922 4.84024 17.4402 4.98424 16.9122C5.12824 16.3842 5.35624 15.9162 5.66824 15.5082C6.00424 15.1002 6.41224 14.7762 6.89224 14.5362C7.39624 14.2962 8.00824 14.1762 8.72824 14.1762C9.47224 14.1762 10.0602 14.3562 10.4922 14.7162C10.9242 15.0522 11.2362 15.4842 11.4282 16.0122C11.6442 16.5162 11.7762 17.0682 11.8242 17.6682C11.8722 18.2442 11.8962 18.7722 11.8962 19.2522V28.0002H16.2162V17.0922C16.2162 16.2042 16.1082 15.3522 15.8922 14.5362C15.6762 13.7202 15.3162 13.0002 14.8122 12.3762C14.3082 11.7522 13.6482 11.2482 12.8322 10.8642C12.0402 10.4802 11.0682 10.2882 9.91624 10.2882C8.57224 10.2882 7.46824 10.5882 6.60424 11.1882C5.76424 11.7642 5.17624 12.4122 4.84024 13.1322Z" fill="#2E2B26"/>
<path d="M75.5947 10.7202H71.4907V28.0002H75.8107V18.5682C75.8107 17.9922 75.8828 17.4402 76.0267 16.9122C76.1707 16.3842 76.3987 15.9162 76.7107 15.5082C77.0467 15.1002 77.4547 14.7762 77.9347 14.5362C78.4387 14.2962 79.0507 14.1762 79.7707 14.1762C80.5147 14.1762 81.1027 14.3562 81.5347 14.7162C81.9667 15.0522 82.2787 15.4842 82.4707 16.0122C82.6868 16.5162 82.8187 17.0682 82.8667 17.6682C82.9147 18.2442 82.9387 18.7722 82.9387 19.2522V28.0002H87.2587V17.0922C87.2587 16.2042 87.1507 15.3522 86.9347 14.5362C86.7188 13.7202 86.3587 13.0002 85.8547 12.3762C85.3507 11.7522 84.6908 11.2482 83.8747 10.8642C83.0827 10.4802 82.1107 10.2882 80.9587 10.2882C79.5187 10.2882 78.3788 10.6122 77.5387 11.2602C76.6987 11.8842 76.0747 12.6282 75.6667 13.4922H75.5947V10.7202Z" fill="#2E2B26"/>
<path fill-rule="evenodd" clip-rule="evenodd" d="M90.7946 19.3602C90.7946 17.9922 91.0346 16.7562 91.5146 15.6522C92.0186 14.5242 92.6906 13.5642 93.5306 12.7722C94.3706 11.9802 95.3666 11.3682 96.5186 10.9362C97.6706 10.5042 98.8946 10.2882 100.191 10.2882C101.487 10.2882 102.711 10.5042 103.863 10.9362C105.015 11.3682 106.011 11.9802 106.851 12.7722C107.691 13.5642 108.351 14.5242 108.831 15.6522C109.335 16.7562 109.587 17.9922 109.587 19.3602C109.587 20.7282 109.335 21.9762 108.831 23.1042C108.351 24.2082 107.691 25.1562 106.851 25.9482C106.011 26.7402 105.015 27.3522 103.863 27.7842C102.711 28.2162 101.487 28.4322 100.191 28.4322C98.8946 28.4322 97.6706 28.2162 96.5186 27.7842C95.3666 27.3522 94.3706 26.7402 93.5306 25.9482C92.6906 25.1562 92.0186 24.2082 91.5146 23.1042C91.0346 21.9762 90.7946 20.7282 90.7946 19.3602ZM95.1146 19.3602C95.1146 20.0322 95.2226 20.6802 95.4386 21.3042C95.6786 21.9282 96.0146 22.4802 96.4466 22.9602C96.9026 23.4402 97.4426 23.8242 98.0666 24.1122C98.6906 24.4002 99.3986 24.5442 100.191 24.5442C100.983 24.5442 101.691 24.4002 102.315 24.1122C102.939 23.8242 103.467 23.4402 103.899 22.9602C104.355 22.4802 104.691 21.9282 104.907 21.3042C105.147 20.6802 105.267 20.0322 105.267 19.3602C105.267 18.6882 105.147 18.0402 104.907 17.4162C104.691 16.7922 104.355 16.2402 103.899 15.7602C103.467 15.2802 102.939 14.8962 102.315 14.6082C101.691 14.3202 100.983 14.1762 100.191 14.1762C99.3986 14.1762 98.6906 14.3202 98.0666 14.6082C97.4426 14.8962 96.9026 15.2802 96.4466 15.7602C96.0146 16.2402 95.6786 16.7922 95.4386 17.4162C95.2226 18.0402 95.1146 18.6882 95.1146 19.3602Z" fill="#2E2B26"/>
<path d="M117.447 10.7202H113.127V28.0002H117.447V18.7482C117.447 18.5082 117.495 18.1482 117.591 17.6682C117.711 17.1882 117.927 16.7082 118.239 16.2282C118.575 15.7482 119.043 15.3282 119.643 14.9682C120.267 14.5842 121.083 14.3922 122.091 14.3922C122.427 14.3922 122.763 14.4282 123.099 14.5002C123.459 14.5482 123.819 14.6202 124.179 14.7162V10.5402C123.915 10.4682 123.651 10.4082 123.387 10.3602C123.147 10.3122 122.895 10.2882 122.631 10.2882C121.479 10.2882 120.459 10.5642 119.571 11.1162C118.683 11.6682 117.999 12.4482 117.519 13.4562H117.447V10.7202Z" fill="#2E2B26"/>
<path d="M135.831 15.5082C134.991 14.3322 133.863 13.7442 132.447 13.7442C131.871 13.7442 131.307 13.8882 130.755 14.1762C130.203 14.4642 129.927 14.9322 129.927 15.5802C129.927 16.1082 130.155 16.4922 130.611 16.7322C131.067 16.9722 131.643 17.1762 132.339 17.3442C133.035 17.5122 133.779 17.6922 134.571 17.8842C135.387 18.0522 136.143 18.3282 136.839 18.7122C137.535 19.0722 138.111 19.5762 138.567 20.2242C139.023 20.8722 139.251 21.7602 139.251 22.8882C139.251 23.9202 139.023 24.7962 138.567 25.5162C138.135 26.2122 137.559 26.7762 136.839 27.2082C136.143 27.6402 135.351 27.9522 134.463 28.1442C133.575 28.3362 132.687 28.4322 131.799 28.4322C130.455 28.4322 129.219 28.2402 128.091 27.8562C126.963 27.4722 125.955 26.7762 125.067 25.7682L127.947 23.0682C128.499 23.6922 129.087 24.2082 129.711 24.6162C130.359 25.0002 131.139 25.1922 132.051 25.1922C132.363 25.1922 132.687 25.1562 133.023 25.0842C133.359 25.0122 133.671 24.8922 133.959 24.7242C134.247 24.5562 134.475 24.3522 134.643 24.1122C134.835 23.8482 134.931 23.5482 134.931 23.2122C134.931 22.6122 134.703 22.1682 134.247 21.8802C133.791 21.5922 133.215 21.3642 132.519 21.1962C131.823 21.0042 131.067 20.8362 130.251 20.6922C129.459 20.5242 128.715 20.2722 128.019 19.9362C127.323 19.5762 126.747 19.0842 126.291 18.4602C125.835 17.8362 125.607 16.9722 125.607 15.8682C125.607 14.9082 125.799 14.0802 126.183 13.3842C126.591 12.6642 127.119 12.0762 127.767 11.6202C128.415 11.1642 129.159 10.8282 129.999 10.6122C130.839 10.3962 131.691 10.2882 132.555 10.2882C133.707 10.2882 134.847 10.4922 135.975 10.9002C137.103 11.2842 138.015 11.9562 138.711 12.9162L135.831 15.5082Z" fill="#2E2B26"/>
<path d="M142.936 23.5002C142.384 24.0522 142.108 24.7122 142.108 25.4802C142.108 25.8642 142.18 26.2242 142.324 26.5602C142.492 26.8962 142.708 27.1842 142.972 27.4242C143.236 27.6642 143.536 27.8562 143.872 28.0002C144.232 28.1442 144.604 28.2162 144.988 28.2162C145.78 28.2162 146.452 27.9402 147.004 27.3882C147.58 26.8362 147.868 26.1762 147.868 25.4082C147.868 24.6402 147.58 23.9922 147.004 23.4642C146.428 22.9362 145.756 22.6722 144.988 22.6722C144.196 22.6722 143.512 22.9482 142.936 23.5002Z" fill="#2E2B26"/>
<path d="M30.8803 23.515C31.6203 24.7033 32.6156 25.7163 33.7894 26.4773C32.2776 27.4389 30.4581 28 28.5002 28C23.2535 28 19.0002 23.9706 19.0002 19C19.0002 14.0294 23.2535 10 28.5002 10C30.1351 10 31.6736 10.3912 33.0169 11.0803C31.9323 11.9487 31.0423 13.05 30.4226 14.3083C29.8346 14.1102 29.1897 14 28.5002 14C25.2561 14 23.0002 16.4396 23.0002 19C23.0002 21.5604 25.2561 24 28.5002 24C29.3734 24 30.175 23.8233 30.8803 23.515Z" fill="#2E2B26"/>
<path d="M48.7894 26.4773C47.6156 25.7163 46.6203 24.7033 45.8803 23.515C45.175 23.8233 44.3734 24 43.5002 24C40.2561 24 38.0002 21.5604 38.0002 19C38.0002 16.4396 40.2561 14 43.5002 14C44.1897 14 44.8346 14.1102 45.4226 14.3083C46.0423 13.05 46.9323 11.9487 48.0169 11.0803C46.6736 10.3912 45.1351 10 43.5002 10C38.2535 10 34.0002 14.0294 34.0002 19C34.0002 23.9706 38.2535 28 43.5002 28C45.4581 28 47.2776 27.4389 48.7894 26.4773Z" fill="#2E2B26"/>
<path fill-rule="evenodd" clip-rule="evenodd" d="M68.0002 19C68.0002 23.9706 63.7469 28 58.5002 28C53.2535 28 49.0002 23.9706 49.0002 19C49.0002 14.0294 53.2535 10 58.5002 10C63.7469 10 68.0002 14.0294 68.0002 19ZM64.0002 19C64.0002 21.5604 61.7443 24 58.5002 24C55.2561 24 53.0002 21.5604 53.0002 19C53.0002 16.4396 55.2561 14 58.5002 14C61.7443 14 64.0002 16.4396 64.0002 19Z" fill="#2E2B26"/>
</svg>
