<svg width="146" height="30" viewBox="0 0 146 30" fill="none" xmlns="http://www.w3.org/2000/svg">
<path d="M34.19 25H40.4V3.55H34.19V25Z" fill="#2E2B26"/>
<path d="M43.8369 25H49.2069V16.21C49.2069 14.2 50.2869 13.24 51.8769 13.24C53.4369 13.24 54.1269 14.11 54.1269 15.88V25H59.4969V14.8C59.4969 10.78 57.3969 8.89 54.3669 8.89C51.7569 8.89 50.0469 10.21 49.2069 11.83V9.31H43.8369V25Z" fill="#2E2B26"/>
<path d="M68.4976 25.36C69.7576 25.36 70.7776 25.09 71.4676 24.91V20.83C70.9876 21.01 70.5376 21.1 69.9376 21.1C68.9176 21.1 68.3476 20.59 68.3476 19.45V12.97H71.4376V9.31H68.3476V6.04H62.9776V9.31H61.0876V12.97H62.9776V19.96C62.9776 23.65 64.9576 25.36 68.4976 25.36Z" fill="#2E2B26"/>
<path d="M81.2977 25.36C86.0377 25.36 88.7677 23.35 89.2477 19.81H84.2077C83.9977 20.86 83.2477 21.67 81.4777 21.67C79.5577 21.67 78.3577 20.47 78.2077 18.4H89.2477V16.99C89.2477 11.35 85.5577 8.89 81.2677 8.89C76.5277 8.89 72.7777 12.07 72.7777 17.11V17.35C72.7777 22.48 76.3777 25.36 81.2977 25.36ZM78.2677 15.37C78.5377 13.48 79.6477 12.43 81.2677 12.43C83.0077 12.43 83.9377 13.48 84.0277 15.37H78.2677Z" fill="#2E2B26"/>
<path d="M91.2474 25H96.6174V17.56C96.6174 15.04 98.4174 14.02 101.687 14.11V9.1C99.2574 9.07 97.6074 10.09 96.6174 12.43V9.31H91.2474V25Z" fill="#2E2B26"/>
<path d="M111.313 25.36C116.053 25.36 118.783 23.35 119.263 19.81H114.223C114.013 20.86 113.263 21.67 111.493 21.67C109.573 21.67 108.373 20.47 108.223 18.4H119.263V16.99C119.263 11.35 115.573 8.89 111.283 8.89C106.543 8.89 102.793 12.07 102.793 17.11V17.35C102.793 22.48 106.393 25.36 111.313 25.36ZM108.283 15.37C108.553 13.48 109.663 12.43 111.283 12.43C113.023 12.43 113.953 13.48 114.043 15.37H108.283Z" fill="#2E2B26"/>
<path d="M127.559 25.36C131.909 25.36 134.669 23.68 134.669 19.96C134.669 16.6 132.569 15.46 128.219 14.92C126.299 14.68 125.579 14.38 125.579 13.63C125.579 12.91 126.179 12.4 127.349 12.4C128.579 12.4 129.149 12.91 129.359 13.96H134.219C133.859 10.21 131.159 8.89 127.289 8.89C123.659 8.89 120.569 10.57 120.569 14.05C120.569 17.32 122.339 18.55 126.539 19.09C128.699 19.39 129.449 19.75 129.449 20.5C129.449 21.28 128.849 21.79 127.529 21.79C125.999 21.79 125.489 21.16 125.309 20.02H120.359C120.479 23.5 123.089 25.36 127.559 25.36Z" fill="#2E2B26"/>
<path d="M142.789 25.36C144.049 25.36 145.069 25.09 145.759 24.91V20.83C145.279 21.01 144.829 21.1 144.229 21.1C143.209 21.1 142.639 20.59 142.639 19.45V12.97H145.729V9.31H142.639V6.04H137.269V9.31H135.379V12.97H137.269V19.96C137.269 23.65 139.249 25.36 142.789 25.36Z" fill="#2E2B26"/>
<path fill-rule="evenodd" clip-rule="evenodd" d="M14 29C21.732 29 28 22.732 28 15C28 7.26801 21.732 1 14 1C6.26801 1 0 7.26801 0 15C0 22.732 6.26801 29 14 29ZM16 8H12V22H16V8Z" fill="#2E2B26"/>
</svg>
