<svg width="88" height="30" viewBox="0 0 88 30" fill="none" xmlns="http://www.w3.org/2000/svg">
<path d="M0.200195 4.80018C1.05353 4.58684 2.17353 4.36018 3.5602 4.12018C4.97353 3.88018 6.6002 3.76018 8.4402 3.76018C9.77353 3.76018 10.8935 3.94684 11.8002 4.32018C12.7069 4.66684 13.4669 5.18684 14.0802 5.88018C14.2669 5.74684 14.5602 5.56018 14.9602 5.32018C15.3602 5.08018 15.8535 4.85351 16.4402 4.64018C17.0269 4.40018 17.6802 4.20018 18.4002 4.04018C19.1202 3.85351 19.8935 3.76018 20.7202 3.76018C22.3202 3.76018 23.6269 4.00018 24.6402 4.48018C25.6535 4.93351 26.4402 5.58684 27.0002 6.44018C27.5869 7.29351 27.9735 8.30684 28.1602 9.48018C28.3735 10.6535 28.4802 11.9335 28.4802 13.3202V25.0002H24.7602V14.1202C24.7602 12.8935 24.6935 11.8402 24.5602 10.9602C24.4535 10.0802 24.2269 9.34684 23.8802 8.76018C23.5602 8.17351 23.1069 7.74684 22.5202 7.48018C21.9602 7.18684 21.2269 7.04018 20.3202 7.04018C19.0669 7.04018 18.0269 7.21351 17.2002 7.56018C16.4002 7.88018 15.8535 8.17351 15.5602 8.44018C15.7735 9.13351 15.9335 9.89351 16.0402 10.7202C16.1469 11.5468 16.2002 12.4135 16.2002 13.3202V25.0002H12.4802V14.1202C12.4802 12.8935 12.4135 11.8402 12.2802 10.9602C12.1469 10.0802 11.9069 9.34684 11.5602 8.76018C11.2402 8.17351 10.7869 7.74684 10.2002 7.48018C9.6402 7.18684 8.9202 7.04018 8.0402 7.04018C7.66686 7.04018 7.26686 7.05351 6.8402 7.08018C6.41353 7.10684 6.0002 7.14684 5.6002 7.20018C5.22686 7.22684 4.8802 7.26684 4.5602 7.32018C4.2402 7.37351 4.02686 7.41351 3.9202 7.44018V25.0002H0.200195V4.80018Z" fill="#2E2B26"/>
<path d="M41.1333 22.3202C42.0133 22.3202 42.7867 22.3068 43.4533 22.2802C44.1467 22.2268 44.72 22.1468 45.1733 22.0402V15.8402C44.9067 15.7068 44.4667 15.6002 43.8533 15.5202C43.2667 15.4135 42.5466 15.3602 41.6933 15.3602C41.1333 15.3602 40.5333 15.4002 39.8933 15.4802C39.28 15.5602 38.7067 15.7335 38.1733 16.0002C37.6667 16.2402 37.24 16.5868 36.8933 17.0402C36.5466 17.4668 36.3733 18.0402 36.3733 18.7602C36.3733 20.0935 36.8 21.0268 37.6533 21.5602C38.5067 22.0668 39.6667 22.3202 41.1333 22.3202ZM40.8133 3.68018C42.3067 3.68018 43.56 3.88018 44.5733 4.28018C45.6133 4.65351 46.44 5.20018 47.0533 5.92018C47.6933 6.61351 48.1467 7.45351 48.4133 8.44018C48.68 9.40018 48.8133 10.4668 48.8133 11.6402V24.6402C48.4933 24.6935 48.04 24.7735 47.4533 24.8802C46.8933 24.9602 46.2533 25.0402 45.5333 25.1202C44.8133 25.2002 44.0267 25.2668 43.1733 25.3202C42.3467 25.4002 41.52 25.4402 40.6933 25.4402C39.52 25.4402 38.44 25.3202 37.4533 25.0802C36.4667 24.8402 35.6133 24.4668 34.8933 23.9602C34.1733 23.4268 33.6133 22.7335 33.2133 21.8802C32.8133 21.0268 32.6133 20.0002 32.6133 18.8002C32.6133 17.6535 32.84 16.6668 33.2933 15.8402C33.7733 15.0135 34.4133 14.3468 35.2133 13.8402C36.0133 13.3335 36.9467 12.9602 38.0133 12.7202C39.08 12.4802 40.2 12.3602 41.3733 12.3602C41.7467 12.3602 42.1333 12.3868 42.5333 12.4402C42.9333 12.4668 43.3067 12.5202 43.6533 12.6002C44.0267 12.6535 44.3467 12.7068 44.6133 12.7602C44.88 12.8135 45.0667 12.8535 45.1733 12.8802V11.8402C45.1733 11.2268 45.1067 10.6268 44.9733 10.0402C44.84 9.42684 44.6 8.89351 44.2533 8.44018C43.9067 7.96018 43.4267 7.58684 42.8133 7.32018C42.2267 7.02684 41.4533 6.88018 40.4933 6.88018C39.2667 6.88018 38.1867 6.97351 37.2533 7.16018C36.3467 7.32018 35.6667 7.49351 35.2133 7.68018L34.7733 4.60018C35.2533 4.38684 36.0533 4.18684 37.1733 4.00018C38.2933 3.78684 39.5067 3.68018 40.8133 3.68018Z" fill="#2E2B26"/>
<path d="M62.1118 3.76018C62.4318 3.76018 62.7918 3.78684 63.1918 3.84018C63.6184 3.86684 64.0318 3.92018 64.4318 4.00018C64.8318 4.05351 65.1918 4.12018 65.5118 4.20018C65.8584 4.25351 66.1118 4.30684 66.2718 4.36018L65.6318 7.60018C65.3384 7.49351 64.8451 7.37351 64.1518 7.24018C63.4851 7.08018 62.6184 7.00018 61.5518 7.00018C60.8584 7.00018 60.1651 7.08018 59.4718 7.24018C58.8051 7.37351 58.3651 7.46684 58.1518 7.52018V25.0002H54.4318V5.08018C55.3118 4.76018 56.4051 4.46684 57.7118 4.20018C59.0184 3.90684 60.4851 3.76018 62.1118 3.76018Z" fill="#2E2B26"/>
<path d="M87.6614 14.6002C87.6614 16.2535 87.4214 17.7468 86.9414 19.0802C86.4614 20.4135 85.7814 21.5602 84.9014 22.5202C84.0481 23.4802 83.0214 24.2268 81.8214 24.7602C80.6214 25.2668 79.3148 25.5202 77.9014 25.5202C76.4881 25.5202 75.1814 25.2668 73.9814 24.7602C72.7814 24.2268 71.7414 23.4802 70.8614 22.5202C70.0081 21.5602 69.3414 20.4135 68.8614 19.0802C68.3814 17.7468 68.1414 16.2535 68.1414 14.6002C68.1414 12.9735 68.3814 11.4935 68.8614 10.1602C69.3414 8.80018 70.0081 7.64018 70.8614 6.68018C71.7414 5.72018 72.7814 4.98684 73.9814 4.48018C75.1814 3.94684 76.4881 3.68018 77.9014 3.68018C79.3148 3.68018 80.6214 3.94684 81.8214 4.48018C83.0214 4.98684 84.0481 5.72018 84.9014 6.68018C85.7814 7.64018 86.4614 8.80018 86.9414 10.1602C87.4214 11.4935 87.6614 12.9735 87.6614 14.6002ZM83.7814 14.6002C83.7814 12.2535 83.2481 10.4002 82.1814 9.04018C81.1414 7.65351 79.7148 6.96018 77.9014 6.96018C76.0881 6.96018 74.6481 7.65351 73.5814 9.04018C72.5414 10.4002 72.0214 12.2535 72.0214 14.6002C72.0214 16.9468 72.5414 18.8135 73.5814 20.2002C74.6481 21.5602 76.0881 22.2402 77.9014 22.2402C79.7148 22.2402 81.1414 21.5602 82.1814 20.2002C83.2481 18.8135 83.7814 16.9468 83.7814 14.6002Z" fill="#2E2B26"/>
</svg>
