<svg width="195" height="30" viewBox="0 0 195 30" fill="none" xmlns="http://www.w3.org/2000/svg">
<path d="M26 15.676C26 22.8557 20.1797 28.676 13 28.676C5.8203 28.676 0 22.8557 0 15.676C0 8.4963 5.8203 2.676 13 2.676C20.1797 2.676 26 8.4963 26 15.676Z" fill="#2E2B26"/>
<path d="M42 15.676C42 22.8557 39.0899 28.676 35.5 28.676C31.9101 28.676 29 22.8557 29 15.676C29 8.4963 31.9101 2.676 35.5 2.676C39.0899 2.676 42 8.4963 42 15.676Z" fill="#2E2B26"/>
<path d="M52.798 27.676V26.84L53.558 26.612C54.0393 26.46 54.3687 26.2193 54.546 25.89C54.7233 25.5353 54.812 25.0793 54.812 24.522V5.712C54.812 5.20533 54.7487 4.8 54.622 4.496C54.4953 4.16667 54.1787 3.91333 53.672 3.736L52.798 3.394V2.558H60.056L67.2 21.14L73.926 2.558H81.336V3.394L80.728 3.584C80.2467 3.736 79.9173 3.97667 79.74 4.306C79.5627 4.61 79.474 5.01533 79.474 5.522C79.4487 6.99133 79.436 8.46067 79.436 9.93C79.436 11.374 79.436 12.8433 79.436 14.338V15.896C79.436 17.3653 79.436 18.8347 79.436 20.304C79.436 21.7733 79.4487 23.23 79.474 24.674C79.474 25.206 79.5373 25.6113 79.664 25.89C79.7907 26.1687 80.0947 26.3967 80.576 26.574L81.336 26.84V27.676H72.102V26.84L72.938 26.574C73.4193 26.3967 73.7107 26.1687 73.812 25.89C73.9387 25.586 74.002 25.1807 74.002 24.674V16.428L74.078 6.244L66.326 27.676H64.198L56.028 6.472L56.18 15.136V24.56C56.18 25.1173 56.256 25.5607 56.408 25.89C56.56 26.2193 56.8767 26.4473 57.358 26.574L58.118 26.84V27.676H52.798Z" fill="#2E2B26"/>
<path d="M90.4002 8.866C91.9962 8.866 93.3642 9.19533 94.5042 9.854C95.6442 10.5127 96.5182 11.4247 97.1262 12.59C97.7595 13.73 98.0762 15.0473 98.0762 16.542C98.0762 16.8713 98.0635 17.188 98.0382 17.492C98.0129 17.7707 97.9622 18.0367 97.8862 18.29H86.4482C86.4735 20.8993 86.9549 22.774 87.8922 23.914C88.8549 25.054 90.2482 25.624 92.0722 25.624C93.3389 25.624 94.3649 25.4213 95.1502 25.016C95.9355 24.5853 96.6575 23.99 97.3162 23.23L97.9242 23.8C97.1642 25.1933 96.1255 26.2827 94.8082 27.068C93.5162 27.828 91.9709 28.208 90.1722 28.208C88.3735 28.208 86.7902 27.828 85.4222 27.068C84.0542 26.308 82.9775 25.2187 82.1922 23.8C81.4322 22.356 81.0522 20.6333 81.0522 18.632C81.0522 16.5547 81.4955 14.794 82.3822 13.35C83.2942 11.906 84.4595 10.804 85.8782 10.044C87.3222 9.25867 88.8295 8.866 90.4002 8.866ZM90.2102 9.968C89.4755 9.968 88.8295 10.1833 88.2722 10.614C87.7402 11.0193 87.3095 11.754 86.9802 12.818C86.6762 13.8567 86.4989 15.326 86.4482 17.226H93.2502C93.5289 14.6673 93.4275 12.818 92.9462 11.678C92.4649 10.538 91.5529 9.968 90.2102 9.968Z" fill="#2E2B26"/>
<path d="M106.852 28.208C105.357 28.208 104.014 27.8787 102.824 27.22C101.633 26.536 100.696 25.4973 100.012 24.104C99.3529 22.6853 99.0235 20.8867 99.0235 18.708C99.0235 16.5293 99.4035 14.718 100.164 13.274C100.924 11.8047 101.937 10.7027 103.204 9.968C104.47 9.23333 105.864 8.866 107.384 8.866C108.296 8.866 109.17 8.98 110.006 9.208C110.842 9.41067 111.576 9.72733 112.21 10.158V5.218C112.21 4.686 112.121 4.306 111.944 4.078C111.792 3.82467 111.462 3.63467 110.956 3.508L110.196 3.356V2.634L116.808 1L117.302 1.342L117.15 6.7V24.978C117.15 25.4593 117.238 25.8647 117.416 26.194C117.593 26.498 117.91 26.7133 118.366 26.84L118.784 26.954V27.676L112.476 28.094L112.134 26.498C111.45 27.03 110.664 27.448 109.778 27.752C108.891 28.056 107.916 28.208 106.852 28.208ZM108.942 26.46C110.031 26.46 111.057 26.1053 112.02 25.396V11.26C111.082 10.6773 110.069 10.386 108.98 10.386C107.738 10.386 106.674 11.0447 105.788 12.362C104.901 13.654 104.458 15.744 104.458 18.632C104.458 21.52 104.876 23.5467 105.712 24.712C106.548 25.8773 107.624 26.46 108.942 26.46Z" fill="#2E2B26"/>
<path d="M123.774 6.776C122.938 6.776 122.229 6.51 121.646 5.978C121.064 5.446 120.772 4.77467 120.772 3.964C120.772 3.128 121.064 2.45667 121.646 1.95C122.229 1.418 122.938 1.152 123.774 1.152C124.61 1.152 125.32 1.418 125.902 1.95C126.485 2.45667 126.776 3.128 126.776 3.964C126.776 4.77467 126.485 5.446 125.902 5.978C125.32 6.51 124.61 6.776 123.774 6.776ZM119.404 27.676V26.954L119.974 26.802C120.481 26.65 120.823 26.422 121 26.118C121.178 25.814 121.279 25.4087 121.304 24.902V17.91C121.304 17.1247 121.304 16.4027 121.304 15.744C121.304 15.06 121.292 14.3633 121.266 13.654C121.266 13.1473 121.165 12.7547 120.962 12.476C120.785 12.172 120.443 11.9693 119.936 11.868L119.404 11.754V11.07L126.054 8.866L126.51 9.284L126.396 14.68V24.94C126.396 25.4467 126.485 25.852 126.662 26.156C126.865 26.46 127.207 26.688 127.688 26.84L128.106 26.954V27.676H119.404Z" fill="#2E2B26"/>
<path d="M134.164 28.208C132.72 28.208 131.491 27.8027 130.478 26.992C129.49 26.156 128.996 24.9653 128.996 23.42C128.996 22.204 129.579 21.0893 130.744 20.076C131.935 19.0373 133.797 18.2773 136.33 17.796C136.761 17.6947 137.255 17.606 137.812 17.53C138.395 17.4287 138.965 17.3273 139.522 17.226V14.528C139.522 12.8053 139.307 11.6147 138.876 10.956C138.445 10.2973 137.761 9.968 136.824 9.968H136.71C136.127 9.968 135.659 10.158 135.304 10.538C134.975 10.8927 134.759 11.488 134.658 12.324L134.544 12.818C134.468 13.8313 134.202 14.5787 133.746 15.06C133.29 15.516 132.72 15.744 132.036 15.744C131.403 15.744 130.871 15.554 130.44 15.174C130.035 14.7687 129.832 14.2493 129.832 13.616C129.832 12.5773 130.187 11.7033 130.896 10.994C131.605 10.2847 132.543 9.75267 133.708 9.398C134.899 9.04333 136.178 8.866 137.546 8.866C139.801 8.866 141.523 9.41067 142.714 10.5C143.905 11.5893 144.5 13.3627 144.5 15.82V24.294C144.5 25.3833 145.019 25.928 146.058 25.928H146.932L147.312 26.346C146.856 26.9287 146.349 27.372 145.792 27.676C145.235 28.0053 144.475 28.17 143.512 28.17C142.423 28.17 141.549 27.9167 140.89 27.41C140.257 26.878 139.839 26.1813 139.636 25.32C138.825 26.1813 138.027 26.878 137.242 27.41C136.457 27.942 135.431 28.208 134.164 28.208ZM136.368 25.776C136.875 25.776 137.356 25.662 137.812 25.434C138.268 25.206 138.838 24.826 139.522 24.294V18.214C138.863 18.3153 138.192 18.442 137.508 18.594C136.419 18.8473 135.532 19.316 134.848 20C134.189 20.684 133.86 21.6087 133.86 22.774C133.86 23.7873 134.088 24.5473 134.544 25.054C135.025 25.5353 135.633 25.776 136.368 25.776Z" fill="#2E2B26"/>
<path d="M154.178 28.208C152.607 28.208 151.366 27.828 150.454 27.068C149.567 26.2827 149.124 25.016 149.124 23.268C149.124 22.66 149.124 22.09 149.124 21.558C149.149 21.0007 149.162 20.3547 149.162 19.62V10.614H146.464V9.778L147.49 9.626C148.224 9.49933 148.845 9.27133 149.352 8.942C149.884 8.61267 150.365 8.15667 150.796 7.574L153.266 4.154H154.406L154.292 9.436H158.624V10.614H154.254V23.572C154.254 24.484 154.444 25.168 154.824 25.624C155.229 26.08 155.723 26.308 156.306 26.308C156.812 26.308 157.268 26.194 157.674 25.966C158.079 25.7127 158.484 25.3833 158.89 24.978L159.384 25.548C158.902 26.384 158.231 27.0427 157.37 27.524C156.508 27.98 155.444 28.208 154.178 28.208Z" fill="#2E2B26"/>
<path d="M168.938 28.208C167.064 28.208 165.417 27.8153 163.998 27.03C162.605 26.2447 161.516 25.13 160.73 23.686C159.97 22.242 159.59 20.5193 159.59 18.518C159.59 16.5167 159.996 14.794 160.806 13.35C161.642 11.906 162.757 10.804 164.15 10.044C165.569 9.25867 167.165 8.866 168.938 8.866C170.712 8.866 172.295 9.25867 173.688 10.044C175.107 10.804 176.222 11.906 177.032 13.35C177.868 14.7687 178.286 16.4913 178.286 18.518C178.286 20.5193 177.894 22.2547 177.108 23.724C176.348 25.168 175.272 26.2827 173.878 27.068C172.485 27.828 170.838 28.208 168.938 28.208ZM168.938 27.144C169.85 27.144 170.585 26.9033 171.142 26.422C171.725 25.9153 172.143 25.0413 172.396 23.8C172.65 22.5587 172.776 20.8233 172.776 18.594C172.776 16.3393 172.65 14.5913 172.396 13.35C172.143 12.0833 171.725 11.2093 171.142 10.728C170.585 10.2213 169.85 9.968 168.938 9.968C168.026 9.968 167.292 10.2213 166.734 10.728C166.177 11.2093 165.759 12.0833 165.48 13.35C165.227 14.5913 165.1 16.3393 165.1 18.594C165.1 20.8233 165.227 22.5587 165.48 23.8C165.759 25.0413 166.177 25.9153 166.734 26.422C167.292 26.9033 168.026 27.144 168.938 27.144Z" fill="#2E2B26"/>
<path d="M178.894 27.676V26.954L179.464 26.764C179.971 26.6373 180.313 26.422 180.49 26.118C180.693 25.814 180.794 25.4087 180.794 24.902V13.768C180.769 13.2107 180.668 12.7927 180.49 12.514C180.313 12.21 179.971 12.0073 179.464 11.906L178.894 11.754V11.07L185.088 8.866L185.544 9.284L185.886 12.628V12.894C186.266 12.1847 186.747 11.526 187.33 10.918C187.913 10.31 188.546 9.816 189.23 9.436C189.914 9.056 190.598 8.866 191.282 8.866C192.245 8.866 192.967 9.11933 193.448 9.626C193.93 10.1327 194.17 10.7787 194.17 11.564C194.17 12.4253 193.93 13.084 193.448 13.54C192.967 13.9707 192.384 14.186 191.7 14.186C190.687 14.186 189.813 13.73 189.078 12.818L189.002 12.742C188.749 12.438 188.458 12.2733 188.128 12.248C187.824 12.1973 187.52 12.3493 187.216 12.704C186.963 12.9573 186.722 13.2613 186.494 13.616C186.292 13.9453 186.102 14.338 185.924 14.794V24.75C185.924 25.2313 186.025 25.6367 186.228 25.966C186.431 26.27 186.773 26.4853 187.254 26.612L188.394 26.954V27.676H178.894Z" fill="#2E2B26"/>
</svg>
