<svg width="156" height="36" viewBox="0 0 156 36" fill="none" xmlns="http://www.w3.org/2000/svg">
<path d="M3.456 27H9.54L15.156 15.876L17.46 27H23.292L32.22 9.18H25.812L20.916 20.592L18.936 9.18H12.888L7.344 20.592L5.76 9.18H0L3.456 27Z" fill="#2E2B26"/>
<path d="M42.4966 8.532C36.4846 8.532 32.2726 12.96 31.5526 17.604C30.6166 23.22 34.3966 27.432 39.5806 27.468C42.8566 27.504 45.9166 26.28 48.0406 24.012L44.6206 21.06C43.5766 22.104 41.9926 22.788 40.3006 22.788C38.5366 22.788 36.9526 21.708 36.6646 19.692H50.0566C50.2006 19.116 50.3086 18.54 50.3446 17.964C50.7406 12.276 47.5006 8.532 42.4966 8.532ZM37.2766 16.02C38.2486 13.932 40.0486 12.996 41.7766 12.996C43.4326 12.996 44.9446 13.896 45.3406 16.02H37.2766Z" fill="#2E2B26"/>
<path d="M63.0838 27.324C68.3758 27.324 71.9398 23.328 72.7318 18.072C73.5598 12.816 70.3558 8.856 65.8198 8.856C63.6238 8.856 61.7158 9.792 60.1318 11.304L61.9318 0H56.0998L51.8158 27H57.6478L57.9718 24.876C58.9798 26.316 60.6718 27.324 63.0838 27.324ZM62.3638 22.32C60.0958 22.32 58.6558 20.52 59.0518 18.072C59.4118 15.624 61.4638 13.824 63.6958 13.824C65.9278 13.824 67.2598 15.624 66.8638 18.072C66.5038 20.52 64.5958 22.32 62.3638 22.32Z" fill="#2E2B26"/>
<path d="M72.7619 36H78.5939L80.3579 24.912C81.4019 26.316 83.0579 27.324 85.4699 27.324C90.6899 27.324 94.3259 23.328 95.1179 18.108C95.9459 12.852 92.8139 8.856 88.2059 8.856C85.9379 8.856 84.0299 9.864 82.5179 11.304L82.8779 9.18H77.0099L72.7619 36ZM84.7499 22.32C82.4819 22.32 81.0419 20.556 81.4379 18.108C81.7979 15.66 83.8499 13.824 86.0819 13.824C88.3139 13.824 89.6459 15.66 89.2499 18.072C88.8899 20.556 86.9819 22.32 84.7499 22.32Z" fill="#2E2B26"/>
<path d="M103.824 27.324C106.344 27.324 108.216 26.46 109.62 24.984L109.296 27H115.128L117.936 9.18H112.104L111.78 11.34C110.7 9.792 109.08 8.856 106.704 8.856C101.844 8.856 97.884 12.816 97.056 18.072C96.228 23.328 99.324 27.324 103.824 27.324ZM106.02 22.32C103.824 22.32 102.348 20.52 102.744 18.072C103.176 15.624 105.156 13.824 107.388 13.824C109.656 13.824 111.132 15.624 110.7 18.072C110.304 20.592 108.288 22.32 106.02 22.32Z" fill="#2E2B26"/>
<path d="M128.049 27.072C129.129 27.072 130.389 26.892 131.721 26.46L132.477 21.816C131.829 22.068 131.145 22.212 130.497 22.212C128.625 22.212 127.617 21.132 127.905 19.296L128.733 14.184H133.593L134.385 9.18H129.489L130.317 3.996H124.593L123.765 9.18H120.165L119.337 14.184H122.973L122.001 20.304C121.317 24.264 123.621 27.072 128.049 27.072Z" fill="#2E2B26"/>
<path d="M134.751 27H140.547L141.987 18.036C142.455 15.516 144.039 13.86 146.199 13.86C148.359 13.86 149.403 15.408 148.971 18.18L147.567 27H153.399L154.875 17.712C155.739 12.384 152.715 8.964 148.395 8.964C146.271 8.964 144.435 9.756 143.067 11.088L144.831 0H139.035L134.751 27Z" fill="#2E2B26"/>
</svg>
